<mxfile host="app.diagrams.net" modified="2023-06-20T04:07:46.882Z" agent="Mozilla/5.0 (Macintosh; Intel Mac OS X 10_15_7) AppleWebKit/537.36 (KHTML, like Gecko) Chrome/114.0.0.0 Safari/537.36" etag="cdoO6ki-vSyArDbomb2e" version="21.5.0" type="device">
  <diagram name="ページ1" id="4xixSpjq_o7YKM5s_zO_">
    <mxGraphModel dx="1149" dy="716" grid="1" gridSize="10" guides="1" tooltips="1" connect="1" arrows="1" fold="1" page="1" pageScale="1" pageWidth="827" pageHeight="1169" math="0" shadow="0">
      <root>
        <mxCell id="0" />
        <mxCell id="1" parent="0" />
        <mxCell id="bwPrrLIBtCTw3V6jJ5_q-3" value="" style="edgeStyle=orthogonalEdgeStyle;rounded=0;orthogonalLoop=1;jettySize=auto;html=1;" parent="1" source="bwPrrLIBtCTw3V6jJ5_q-1" target="bwPrrLIBtCTw3V6jJ5_q-2" edge="1">
          <mxGeometry relative="1" as="geometry" />
        </mxCell>
        <mxCell id="bwPrrLIBtCTw3V6jJ5_q-1" value="フライトピン" style="rounded=0;whiteSpace=wrap;html=1;" parent="1" vertex="1">
          <mxGeometry x="40" y="300" width="80" height="40" as="geometry" />
        </mxCell>
        <mxCell id="bwPrrLIBtCTw3V6jJ5_q-5" value="" style="edgeStyle=orthogonalEdgeStyle;rounded=0;orthogonalLoop=1;jettySize=auto;html=1;" parent="1" source="bwPrrLIBtCTw3V6jJ5_q-2" target="bwPrrLIBtCTw3V6jJ5_q-4" edge="1">
          <mxGeometry relative="1" as="geometry" />
        </mxCell>
        <mxCell id="bwPrrLIBtCTw3V6jJ5_q-2" value="チャタリング対策回路" style="verticalLabelPosition=bottom;shadow=0;dashed=0;align=center;html=1;verticalAlign=top;shape=mxgraph.electrical.logic_gates.lowpass_filter;" parent="1" vertex="1">
          <mxGeometry x="160" y="297" width="52" height="46" as="geometry" />
        </mxCell>
        <mxCell id="bwPrrLIBtCTw3V6jJ5_q-7" value="" style="edgeStyle=orthogonalEdgeStyle;rounded=0;orthogonalLoop=1;jettySize=auto;html=1;" parent="1" source="bwPrrLIBtCTw3V6jJ5_q-4" target="bwPrrLIBtCTw3V6jJ5_q-6" edge="1">
          <mxGeometry relative="1" as="geometry" />
        </mxCell>
        <mxCell id="bwPrrLIBtCTw3V6jJ5_q-4" value="プルアップ回路" style="verticalLabelPosition=bottom;shadow=0;dashed=0;align=center;html=1;verticalAlign=top;shape=mxgraph.electrical.iec_logic_gates.xor;" parent="1" vertex="1">
          <mxGeometry x="260" y="280" width="60" height="80" as="geometry" />
        </mxCell>
        <mxCell id="bwPrrLIBtCTw3V6jJ5_q-19" style="edgeStyle=orthogonalEdgeStyle;rounded=0;orthogonalLoop=1;jettySize=auto;html=1;entryX=0;entryY=0.5;entryDx=0;entryDy=0;" parent="1" source="bwPrrLIBtCTw3V6jJ5_q-6" target="bwPrrLIBtCTw3V6jJ5_q-9" edge="1">
          <mxGeometry relative="1" as="geometry">
            <Array as="points">
              <mxPoint x="400" y="420" />
            </Array>
          </mxGeometry>
        </mxCell>
        <mxCell id="bwPrrLIBtCTw3V6jJ5_q-6" value="離床検知" style="rounded=1;whiteSpace=wrap;html=1;" parent="1" vertex="1">
          <mxGeometry x="360" y="300" width="80" height="40" as="geometry" />
        </mxCell>
        <mxCell id="bwPrrLIBtCTw3V6jJ5_q-23" value="" style="edgeStyle=orthogonalEdgeStyle;rounded=0;orthogonalLoop=1;jettySize=auto;html=1;" parent="1" source="bwPrrLIBtCTw3V6jJ5_q-9" target="bwPrrLIBtCTw3V6jJ5_q-21" edge="1">
          <mxGeometry relative="1" as="geometry" />
        </mxCell>
        <mxCell id="bwPrrLIBtCTw3V6jJ5_q-9" value="" style="ellipse;whiteSpace=wrap;html=1;aspect=fixed;" parent="1" vertex="1">
          <mxGeometry x="500" y="400" width="40" height="40" as="geometry" />
        </mxCell>
        <mxCell id="bwPrrLIBtCTw3V6jJ5_q-10" value="強制分離&lt;br&gt;内部タイマー" style="text;html=1;strokeColor=none;fillColor=none;align=center;verticalAlign=middle;whiteSpace=wrap;rounded=0;" parent="1" vertex="1">
          <mxGeometry x="480" y="370" width="80" height="30" as="geometry" />
        </mxCell>
        <mxCell id="bwPrrLIBtCTw3V6jJ5_q-11" value="" style="endArrow=none;html=1;rounded=0;entryX=0.5;entryY=1;entryDx=0;entryDy=0;" parent="1" target="bwPrrLIBtCTw3V6jJ5_q-10" edge="1">
          <mxGeometry width="50" height="50" relative="1" as="geometry">
            <mxPoint x="520" y="420" as="sourcePoint" />
            <mxPoint x="570" y="370" as="targetPoint" />
          </mxGeometry>
        </mxCell>
        <mxCell id="bwPrrLIBtCTw3V6jJ5_q-12" value="頂点到達時間&lt;br&gt;+ 2 sec" style="text;html=1;strokeColor=none;fillColor=none;align=center;verticalAlign=middle;whiteSpace=wrap;rounded=0;" parent="1" vertex="1">
          <mxGeometry x="480" y="440" width="80" height="30" as="geometry" />
        </mxCell>
        <mxCell id="bwPrrLIBtCTw3V6jJ5_q-24" value="" style="edgeStyle=orthogonalEdgeStyle;rounded=0;orthogonalLoop=1;jettySize=auto;html=1;" parent="1" source="bwPrrLIBtCTw3V6jJ5_q-15" target="bwPrrLIBtCTw3V6jJ5_q-22" edge="1">
          <mxGeometry relative="1" as="geometry" />
        </mxCell>
        <mxCell id="bwPrrLIBtCTw3V6jJ5_q-15" value="" style="ellipse;whiteSpace=wrap;html=1;aspect=fixed;" parent="1" vertex="1">
          <mxGeometry x="500" y="520" width="40" height="40" as="geometry" />
        </mxCell>
        <mxCell id="bwPrrLIBtCTw3V6jJ5_q-16" value="分離保護&lt;br&gt;内部タイマー" style="text;html=1;strokeColor=none;fillColor=none;align=center;verticalAlign=middle;whiteSpace=wrap;rounded=0;" parent="1" vertex="1">
          <mxGeometry x="480" y="490" width="80" height="30" as="geometry" />
        </mxCell>
        <mxCell id="bwPrrLIBtCTw3V6jJ5_q-17" value="" style="endArrow=none;html=1;rounded=0;entryX=0.5;entryY=1;entryDx=0;entryDy=0;" parent="1" target="bwPrrLIBtCTw3V6jJ5_q-16" edge="1">
          <mxGeometry width="50" height="50" relative="1" as="geometry">
            <mxPoint x="520" y="540" as="sourcePoint" />
            <mxPoint x="570" y="490" as="targetPoint" />
          </mxGeometry>
        </mxCell>
        <mxCell id="bwPrrLIBtCTw3V6jJ5_q-18" value="頂点到達時間&lt;br&gt;- 2 sec" style="text;html=1;strokeColor=none;fillColor=none;align=center;verticalAlign=middle;whiteSpace=wrap;rounded=0;" parent="1" vertex="1">
          <mxGeometry x="480" y="560" width="80" height="30" as="geometry" />
        </mxCell>
        <mxCell id="bwPrrLIBtCTw3V6jJ5_q-20" value="" style="endArrow=classic;html=1;rounded=0;entryX=0;entryY=0.5;entryDx=0;entryDy=0;" parent="1" target="bwPrrLIBtCTw3V6jJ5_q-15" edge="1">
          <mxGeometry width="50" height="50" relative="1" as="geometry">
            <mxPoint x="400" y="410" as="sourcePoint" />
            <mxPoint x="450" y="360" as="targetPoint" />
            <Array as="points">
              <mxPoint x="400" y="540" />
            </Array>
          </mxGeometry>
        </mxCell>
        <mxCell id="bwPrrLIBtCTw3V6jJ5_q-43" style="edgeStyle=orthogonalEdgeStyle;rounded=0;orthogonalLoop=1;jettySize=auto;html=1;entryX=0;entryY=0.371;entryDx=0;entryDy=0;entryPerimeter=0;" parent="1" source="bwPrrLIBtCTw3V6jJ5_q-21" target="bwPrrLIBtCTw3V6jJ5_q-41" edge="1">
          <mxGeometry relative="1" as="geometry">
            <mxPoint x="830" y="470" as="targetPoint" />
            <Array as="points">
              <mxPoint x="800" y="420" />
              <mxPoint x="800" y="470" />
            </Array>
          </mxGeometry>
        </mxCell>
        <mxCell id="bwPrrLIBtCTw3V6jJ5_q-21" value="強制分離判定" style="rounded=1;whiteSpace=wrap;html=1;" parent="1" vertex="1">
          <mxGeometry x="580" y="400" width="100" height="40" as="geometry" />
        </mxCell>
        <mxCell id="bwPrrLIBtCTw3V6jJ5_q-26" style="edgeStyle=orthogonalEdgeStyle;rounded=0;orthogonalLoop=1;jettySize=auto;html=1;" parent="1" source="bwPrrLIBtCTw3V6jJ5_q-22" target="bwPrrLIBtCTw3V6jJ5_q-25" edge="1">
          <mxGeometry relative="1" as="geometry">
            <Array as="points">
              <mxPoint x="700" y="540" />
              <mxPoint x="700" y="590" />
            </Array>
          </mxGeometry>
        </mxCell>
        <mxCell id="bwPrrLIBtCTw3V6jJ5_q-22" value="分離許可判定" style="rounded=1;whiteSpace=wrap;html=1;" parent="1" vertex="1">
          <mxGeometry x="580" y="520" width="100" height="40" as="geometry" />
        </mxCell>
        <mxCell id="bwPrrLIBtCTw3V6jJ5_q-42" style="edgeStyle=orthogonalEdgeStyle;rounded=0;orthogonalLoop=1;jettySize=auto;html=1;entryX=0.017;entryY=0.625;entryDx=0;entryDy=0;entryPerimeter=0;" parent="1" source="bwPrrLIBtCTw3V6jJ5_q-25" target="bwPrrLIBtCTw3V6jJ5_q-41" edge="1">
          <mxGeometry relative="1" as="geometry">
            <Array as="points">
              <mxPoint x="800" y="600" />
              <mxPoint x="800" y="490" />
            </Array>
          </mxGeometry>
        </mxCell>
        <mxCell id="bwPrrLIBtCTw3V6jJ5_q-25" value="" style="verticalLabelPosition=bottom;shadow=0;dashed=0;align=center;html=1;verticalAlign=top;shape=mxgraph.electrical.iec_logic_gates.and;" parent="1" vertex="1">
          <mxGeometry x="720" y="560" width="60" height="80" as="geometry" />
        </mxCell>
        <mxCell id="bwPrrLIBtCTw3V6jJ5_q-27" style="edgeStyle=orthogonalEdgeStyle;rounded=0;orthogonalLoop=1;jettySize=auto;html=1;exitX=1;exitY=0.5;exitDx=0;exitDy=0;" parent="1" source="bwPrrLIBtCTw3V6jJ5_q-33" edge="1">
          <mxGeometry relative="1" as="geometry">
            <mxPoint x="109.99999999999989" y="630" as="sourcePoint" />
            <mxPoint x="150" y="650" as="targetPoint" />
          </mxGeometry>
        </mxCell>
        <mxCell id="bwPrrLIBtCTw3V6jJ5_q-28" style="edgeStyle=orthogonalEdgeStyle;rounded=0;orthogonalLoop=1;jettySize=auto;html=1;exitX=1;exitY=0.5;exitDx=0;exitDy=0;" parent="1" source="bwPrrLIBtCTw3V6jJ5_q-34" edge="1">
          <mxGeometry relative="1" as="geometry">
            <mxPoint x="109.47999999999988" y="690" as="sourcePoint" />
            <mxPoint x="149.48" y="670" as="targetPoint" />
          </mxGeometry>
        </mxCell>
        <mxCell id="bwPrrLIBtCTw3V6jJ5_q-29" value="" style="edgeStyle=orthogonalEdgeStyle;rounded=0;orthogonalLoop=1;jettySize=auto;html=1;" parent="1" source="bwPrrLIBtCTw3V6jJ5_q-30" edge="1">
          <mxGeometry relative="1" as="geometry">
            <mxPoint x="360" y="659.9655172413793" as="targetPoint" />
          </mxGeometry>
        </mxCell>
        <mxCell id="bwPrrLIBtCTw3V6jJ5_q-30" value="指数移動平均" style="verticalLabelPosition=bottom;shadow=0;dashed=0;align=center;html=1;verticalAlign=top;shape=mxgraph.electrical.logic_gates.lowpass_filter;" parent="1" vertex="1">
          <mxGeometry x="270" y="637" width="52" height="46" as="geometry" />
        </mxCell>
        <mxCell id="bwPrrLIBtCTw3V6jJ5_q-31" value="" style="edgeStyle=orthogonalEdgeStyle;rounded=0;orthogonalLoop=1;jettySize=auto;html=1;" parent="1" source="bwPrrLIBtCTw3V6jJ5_q-32" target="bwPrrLIBtCTw3V6jJ5_q-35" edge="1">
          <mxGeometry relative="1" as="geometry" />
        </mxCell>
        <mxCell id="bwPrrLIBtCTw3V6jJ5_q-32" value="規定回数以上&lt;br&gt;連続降下" style="rounded=1;whiteSpace=wrap;html=1;" parent="1" vertex="1">
          <mxGeometry x="480" y="640" width="80" height="40" as="geometry" />
        </mxCell>
        <mxCell id="bwPrrLIBtCTw3V6jJ5_q-33" value="気圧計測" style="rounded=1;whiteSpace=wrap;html=1;" parent="1" vertex="1">
          <mxGeometry x="30" y="610" width="80" height="40" as="geometry" />
        </mxCell>
        <mxCell id="bwPrrLIBtCTw3V6jJ5_q-34" value="気温計測" style="rounded=1;whiteSpace=wrap;html=1;" parent="1" vertex="1">
          <mxGeometry x="30" y="670" width="80" height="40" as="geometry" />
        </mxCell>
        <mxCell id="bwPrrLIBtCTw3V6jJ5_q-40" style="edgeStyle=orthogonalEdgeStyle;rounded=0;orthogonalLoop=1;jettySize=auto;html=1;" parent="1" source="bwPrrLIBtCTw3V6jJ5_q-35" edge="1">
          <mxGeometry relative="1" as="geometry">
            <mxPoint x="720" y="610" as="targetPoint" />
            <Array as="points">
              <mxPoint x="700" y="660" />
              <mxPoint x="700" y="610" />
              <mxPoint x="720" y="610" />
            </Array>
          </mxGeometry>
        </mxCell>
        <mxCell id="bwPrrLIBtCTw3V6jJ5_q-35" value="頂点検知" style="rounded=1;whiteSpace=wrap;html=1;" parent="1" vertex="1">
          <mxGeometry x="600" y="640" width="80" height="40" as="geometry" />
        </mxCell>
        <mxCell id="bwPrrLIBtCTw3V6jJ5_q-36" value="" style="edgeStyle=orthogonalEdgeStyle;rounded=0;orthogonalLoop=1;jettySize=auto;html=1;" parent="1" target="bwPrrLIBtCTw3V6jJ5_q-32" edge="1">
          <mxGeometry relative="1" as="geometry">
            <mxPoint x="410.0000000000002" y="659.9999999999999" as="sourcePoint" />
          </mxGeometry>
        </mxCell>
        <mxCell id="bwPrrLIBtCTw3V6jJ5_q-37" value="" style="edgeStyle=orthogonalEdgeStyle;rounded=0;orthogonalLoop=1;jettySize=auto;html=1;" parent="1" source="bwPrrLIBtCTw3V6jJ5_q-38" target="bwPrrLIBtCTw3V6jJ5_q-30" edge="1">
          <mxGeometry relative="1" as="geometry" />
        </mxCell>
        <mxCell id="bwPrrLIBtCTw3V6jJ5_q-38" value="高度算出" style="rounded=1;whiteSpace=wrap;html=1;" parent="1" vertex="1">
          <mxGeometry x="150" y="640" width="80" height="40" as="geometry" />
        </mxCell>
        <mxCell id="bwPrrLIBtCTw3V6jJ5_q-39" value="変化量算出" style="rounded=1;whiteSpace=wrap;html=1;" parent="1" vertex="1">
          <mxGeometry x="360" y="640" width="80" height="40" as="geometry" />
        </mxCell>
        <mxCell id="bwPrrLIBtCTw3V6jJ5_q-48" value="" style="edgeStyle=orthogonalEdgeStyle;rounded=0;orthogonalLoop=1;jettySize=auto;html=1;" parent="1" source="bwPrrLIBtCTw3V6jJ5_q-41" target="bwPrrLIBtCTw3V6jJ5_q-47" edge="1">
          <mxGeometry relative="1" as="geometry" />
        </mxCell>
        <mxCell id="bwPrrLIBtCTw3V6jJ5_q-41" value="" style="verticalLabelPosition=bottom;shadow=0;dashed=0;align=center;html=1;verticalAlign=top;shape=mxgraph.electrical.iec_logic_gates.or;" parent="1" vertex="1">
          <mxGeometry x="820" y="440" width="60" height="80" as="geometry" />
        </mxCell>
        <mxCell id="bwPrrLIBtCTw3V6jJ5_q-53" style="edgeStyle=orthogonalEdgeStyle;rounded=0;orthogonalLoop=1;jettySize=auto;html=1;exitX=1;exitY=0.8;exitDx=0;exitDy=0;entryX=0.5;entryY=0;entryDx=0;entryDy=0;entryPerimeter=0;endArrow=none;endFill=0;" parent="1" source="bwPrrLIBtCTw3V6jJ5_q-47" target="bwPrrLIBtCTw3V6jJ5_q-52" edge="1">
          <mxGeometry relative="1" as="geometry">
            <Array as="points">
              <mxPoint x="964" y="421" />
              <mxPoint x="958" y="421" />
            </Array>
          </mxGeometry>
        </mxCell>
        <mxCell id="bwPrrLIBtCTw3V6jJ5_q-55" style="edgeStyle=orthogonalEdgeStyle;rounded=0;orthogonalLoop=1;jettySize=auto;html=1;exitX=0;exitY=0.8;exitDx=0;exitDy=0;endArrow=none;endFill=0;" parent="1" source="bwPrrLIBtCTw3V6jJ5_q-47" target="bwPrrLIBtCTw3V6jJ5_q-54" edge="1">
          <mxGeometry relative="1" as="geometry">
            <mxPoint x="970" y="520" as="sourcePoint" />
            <Array as="points">
              <mxPoint x="964" y="550" />
              <mxPoint x="958" y="550" />
            </Array>
          </mxGeometry>
        </mxCell>
        <mxCell id="bwPrrLIBtCTw3V6jJ5_q-47" value="" style="html=1;shape=mxgraph.electrical.electro-mechanical.pushbutton;aspect=fixed;elSwitchState=off;rotation=-90;" parent="1" vertex="1">
          <mxGeometry x="920" y="470" width="75" height="20" as="geometry" />
        </mxCell>
        <mxCell id="bwPrrLIBtCTw3V6jJ5_q-49" value="電磁弁駆動用リレー&lt;br&gt;3秒間ON" style="text;html=1;strokeColor=none;fillColor=none;align=left;verticalAlign=middle;whiteSpace=wrap;rounded=0;" parent="1" vertex="1">
          <mxGeometry x="970" y="465" width="120" height="30" as="geometry" />
        </mxCell>
        <mxCell id="bwPrrLIBtCTw3V6jJ5_q-52" value="12V" style="verticalLabelPosition=top;verticalAlign=bottom;shape=mxgraph.electrical.signal_sources.vdd;shadow=0;dashed=0;align=center;strokeWidth=1;fontSize=24;html=1;flipV=1;" parent="1" vertex="1">
          <mxGeometry x="927.5" y="240" width="60" height="40" as="geometry" />
        </mxCell>
        <mxCell id="bwPrrLIBtCTw3V6jJ5_q-54" value="電磁弁" style="rounded=0;whiteSpace=wrap;html=1;" parent="1" vertex="1">
          <mxGeometry x="897.5" y="760" width="120" height="60" as="geometry" />
        </mxCell>
        <mxCell id="bwPrrLIBtCTw3V6jJ5_q-56" value="" style="endArrow=none;dashed=1;html=1;dashPattern=1 3;strokeWidth=2;rounded=0;" parent="1" edge="1">
          <mxGeometry width="50" height="50" relative="1" as="geometry">
            <mxPoint x="350" y="280" as="sourcePoint" />
            <mxPoint x="350" y="280" as="targetPoint" />
            <Array as="points">
              <mxPoint x="1090" y="280" />
              <mxPoint x="1080" y="720" />
              <mxPoint x="140" y="720" />
              <mxPoint x="140" y="600" />
              <mxPoint x="350" y="600" />
            </Array>
          </mxGeometry>
        </mxCell>
        <mxCell id="bwPrrLIBtCTw3V6jJ5_q-57" value="フライトコンピューター" style="text;html=1;strokeColor=none;fillColor=none;align=center;verticalAlign=middle;whiteSpace=wrap;rounded=0;fontSize=24;" parent="1" vertex="1">
          <mxGeometry x="350" y="250" width="270" height="30" as="geometry" />
        </mxCell>
        <mxCell id="bwPrrLIBtCTw3V6jJ5_q-58" value="減速装置放出機構" style="text;html=1;strokeColor=none;fillColor=none;align=center;verticalAlign=middle;whiteSpace=wrap;rounded=0;fontSize=24;" parent="1" vertex="1">
          <mxGeometry x="850" y="850" width="215" height="30" as="geometry" />
        </mxCell>
        <mxCell id="bwPrrLIBtCTw3V6jJ5_q-59" value="" style="endArrow=none;dashed=1;html=1;dashPattern=1 3;strokeWidth=2;rounded=0;" parent="1" edge="1">
          <mxGeometry width="50" height="50" relative="1" as="geometry">
            <mxPoint x="880" y="740" as="sourcePoint" />
            <mxPoint x="880" y="740" as="targetPoint" />
            <Array as="points">
              <mxPoint x="1040" y="740" />
              <mxPoint x="1040" y="840" />
              <mxPoint x="880" y="840" />
            </Array>
          </mxGeometry>
        </mxCell>
      </root>
    </mxGraphModel>
  </diagram>
</mxfile>
